<svg t="1682415859360" class="icon" viewBox="0 0 1024 1024" version="1.1" xmlns="http://www.w3.org/2000/svg" p-id="1885" width="128" height="128"><path d="M352 960H96V64h256z m-192-64h128V128H160z m480 64H384V64h256z m-192-64h128V128H448z m480 64H672V64h256z m-192-64h128V128H736z" p-id="1886" fill="#e6e6e6"></path><path d="M128 176h160v64H128z m288 0h160v64H416z m304 0h160v64H720zM128 560h160v64H128z m288 0h160v64H416z m304 0h160v64H720zM192 672h64v48h-64z m288 0h64v48h-64z m288 0h64v48h-64z" p-id="1887" fill="#e6e6e6"></path></svg>