<svg t="1682416553344" class="icon" viewBox="0 0 1024 1024" version="1.1" xmlns="http://www.w3.org/2000/svg" p-id="7227" width="128" height="128"><path d="M352 832H128V192h704v128c0 19.2 12.8 32 32 32s32-12.8 32-32V192c0-35.2-28.8-64-64-64H128c-35.2 0-64 28.8-64 64v640c0 35.2 28.8 64 64 64h224c19.2 0 32-12.8 32-32s-12.8-32-32-32z m425.6-217.6C809.6 592 832 553.6 832 512c0-70.4-57.6-128-128-128s-128 57.6-128 128c0 41.6 22.4 80 54.4 102.4C499.2 643.2 448 742.4 448 832c0 19.2 12.8 32 32 32s32-12.8 32-32c0-38.4 12.8-160 192-160 89.6 0 192 41.6 192 160 0 19.2 12.8 32 32 32s32-12.8 32-32c0-112-70.4-192-182.4-217.6zM704 448c35.2 0 64 28.8 64 64s-28.8 64-64 64-64-28.8-64-64 28.8-64 64-64z m-96-96c0-19.2-12.8-32-32-32H256c-19.2 0-32 12.8-32 32s12.8 32 32 32h320c19.2 0 32-12.8 32-32zM256 480c-19.2 0-32 12.8-32 32s12.8 32 32 32h160c19.2 0 32-12.8 32-32s-12.8-32-32-32H256z m160 160H256c-19.2 0-32 12.8-32 32s12.8 32 32 32h160c19.2 0 32-12.8 32-32s-12.8-32-32-32z" p-id="7228" fill="#e6e6e6"></path></svg>