<svg t="1682416604859" class="icon" viewBox="0 0 1024 1024" version="1.1" xmlns="http://www.w3.org/2000/svg" p-id="10615" width="128" height="128"><path d="M467.387733 96.768L142.574933 383.317333a68.266667 68.266667 0 0 0-23.108266 51.2V887.466667a68.266667 68.266667 0 0 0 68.266666 68.266666h648.533334a68.266667 68.266667 0 0 0 68.266666-68.266666V434.466133a68.266667 68.266667 0 0 0-23.022933-51.114666L557.789867 96.836267a68.266667 68.266667 0 0 0-90.402134-0.085334zM187.733333 434.517333L512.546133 147.933867 836.266667 434.466133V887.466667H187.733333V434.517333z" fill="#e6e6e6" p-id="10616"></path><path d="M546.133333 597.333333v221.866667h-68.266666V597.333333a34.133333 34.133333 0 1 1 68.266666 0z" fill="#e6e6e6" p-id="10617"></path></svg>