<svg t="1682421330647" class="icon" viewBox="0 0 1024 1024" version="1.1" xmlns="http://www.w3.org/2000/svg" p-id="16163" width="128" height="128"><path d="M780.8 1024 243.2 1024c-108.8 0-204.8-89.6-204.8-204.8L38.4 512c0-108.8 89.6-204.8 204.8-204.8l544 0c108.8 0 204.8 89.6 204.8 204.8l0 313.6C985.6 934.4 896 1024 780.8 1024zM243.2 371.2c-76.8 0-140.8 64-140.8 140.8l0 313.6c0 76.8 64 140.8 140.8 140.8l544 0c76.8 0 140.8-64 140.8-140.8L928 512c0-76.8-64-140.8-140.8-140.8L243.2 371.2z" fill="#e6e6e6" p-id="16164"></path><path d="M512 576m-64 0a1 1 0 1 0 128 0 1 1 0 1 0-128 0Z" fill="#e6e6e6" p-id="16165"></path><path d="M480 608l64 0 0 192-64 0 0-192Z" fill="#e6e6e6" p-id="16166"></path><path d="M320 320 256 320 256 243.2C256 108.8 371.2 0 512 0c134.4 0 243.2 96 256 224l-64 6.4C697.6 134.4 614.4 64 512 64 409.6 64 320 140.8 320 243.2L320 320z" fill="#e6e6e6" p-id="16167"></path></svg>