<svg t="1682415973534" class="icon" viewBox="0 0 1024 1024" version="1.1" xmlns="http://www.w3.org/2000/svg" p-id="3505" width="128" height="128"><path d="M593.92 0L0 152.812308v490.338461L407.236923 1024l157.538462-50.412308a39.384615 39.384615 0 0 0 25.993846-50.018461 39.384615 39.384615 0 0 0-50.018462-25.206154l-83.101538 25.6-3.544616-439.532308L945.230769 341.070769v245.76a39.384615 39.384615 0 1 0 78.769231 0V265.846154z m-172.110769 411.175385L309.169231 329.649231l460.8-126.030769 118.153846 72.467692z m257.181538-265.058462L226.855385 270.178462 131.150769 200.861538l449.772308-115.790769zM78.769231 261.12l295.778461 213.858462 1.969231 412.356923L78.769231 608.886154z" p-id="3506" fill="#e6e6e6"></path><path d="M219.766154 641.181538l-48.443077-39.384615v-25.6l48.443077 39.384615v-18.116923l-48.443077-39.384615v-25.993846l39.384615 31.901538-57.107692-157.538461 52.775385 42.929231 18.510769 66.166153c9.452308 32.689231 11.421538 39.384615 17.329231 61.833847 6.301538-10.633846 9.452308-16.147692 18.510769-32.689231l18.904615-35.446154L333.193846 551.384615 275.692308 615.187692l39.384615 31.901539v25.6l-47.655385-39.384616v18.116923l48.049231 39.384616v25.993846l-48.049231-39.384615v43.716923l-48.04923-35.84zM1013.366154 861.735385l-32.295385-18.51077a154.387692 154.387692 0 0 0 0-99.643077l32.295385-18.904615a20.48 20.48 0 0 0 7.876923-28.356923l-20.873846-36.627692a21.267692 21.267692 0 0 0-28.750769-7.483077l-31.901539 18.510769a175.261538 175.261538 0 0 0-86.646154-50.018462v-37.021538a21.267692 21.267692 0 0 0-21.267692-20.873846h-41.747692a20.873846 20.873846 0 0 0-20.873847 20.873846v37.021538A174.867692 174.867692 0 0 0 682.141538 669.538462l-31.901538-18.51077a21.267692 21.267692 0 0 0-28.750769 7.483077l-20.873846 36.627693a20.873846 20.873846 0 0 0 7.876923 28.356923l32.295384 18.904615a154.387692 154.387692 0 0 0 0 99.643077l-32.295384 18.510769a21.267692 21.267692 0 0 0-7.876923 28.750769l20.873846 36.233847a21.267692 21.267692 0 0 0 28.750769 7.876923l31.901538-18.51077a177.624615 177.624615 0 0 0 87.04 50.018462v37.021538a20.873846 20.873846 0 0 0 20.873847 20.873847h41.747692a21.267692 21.267692 0 0 0 21.267692-20.873847v-37.021538a178.412308 178.412308 0 0 0 86.646154-50.018462l31.901539 18.51077a21.267692 21.267692 0 0 0 28.750769-7.876923l20.873846-36.233847a20.873846 20.873846 0 0 0-7.876923-27.56923z m-202.436923 36.627692a105.156923 105.156923 0 1 1 104.763077-105.156923 105.156923 105.156923 0 0 1-104.763077 105.156923z" p-id="3507" fill="#e6e6e6"></path></svg>